<svg xmlns="http://www.w3.org/2000/svg" xmlns:xlink="http://www.w3.org/1999/xlink" width="500" zoomAndPan="magnify" viewBox="0 0 375 374.999991" height="500" preserveAspectRatio="xMidYMid meet" version="1.0"><defs><g/></defs><g fill="#000000" fill-opacity="1"><g transform="translate(27.84542, 243.099298)"><g><path d="M 131.78125 -66.515625 C 131.78125 -41.421875 125.660156 -23.535156 113.421875 -12.859375 C 101.191406 -2.191406 82.421875 3.140625 57.109375 3.140625 C 45.179688 3.140625 32.210938 1.882812 18.203125 -0.625 C 14.429688 -1.25 11.8125 -2.554688 10.34375 -4.546875 C 8.882812 -6.535156 8.257812 -9.726562 8.46875 -14.125 L 11.296875 -49.890625 C 11.710938 -54.703125 13.804688 -57.109375 17.578125 -57.109375 C 20.085938 -57.109375 22.597656 -56.796875 25.109375 -56.171875 C 29.703125 -55.328125 33.359375 -54.90625 36.078125 -54.90625 C 44.035156 -54.90625 50.101562 -57.207031 54.28125 -61.8125 C 58.46875 -66.414062 60.5625 -73.84375 60.5625 -84.09375 L 60.5625 -225.609375 C 60.5625 -227.910156 61.132812 -229.6875 62.28125 -230.9375 C 63.4375 -232.195312 64.953125 -232.828125 66.828125 -232.828125 L 126.140625 -232.828125 C 129.898438 -232.828125 131.78125 -230.628906 131.78125 -226.234375 Z M 131.78125 -66.515625 "/></g></g></g><g fill="#000000" fill-opacity="1"><g transform="translate(151.722766, 354.552908)"><g><path d="M 16.3125 -225.609375 C 16.3125 -230.421875 18.300781 -232.828125 22.28125 -232.828125 L 191.71875 -232.828125 C 195.488281 -232.828125 197.375 -230.628906 197.375 -226.234375 L 197.046875 -189.84375 C 197.046875 -184.1875 194.328125 -181.359375 188.890625 -181.359375 L 94.765625 -181.359375 C 89.953125 -181.359375 87.546875 -179.375 87.546875 -175.40625 L 87.546875 -148.734375 C 87.546875 -146.640625 88.066406 -145.015625 89.109375 -143.859375 C 90.160156 -142.710938 91.519531 -142.140625 93.1875 -142.140625 L 149.671875 -142.140625 C 154.066406 -142.140625 156.265625 -140.050781 156.265625 -135.875 L 156.265625 -96.953125 C 156.265625 -93.398438 154.378906 -91.625 150.609375 -91.625 L 92.5625 -91.625 C 91.101562 -91.625 89.898438 -91.203125 88.953125 -90.359375 C 88.015625 -89.523438 87.546875 -88.484375 87.546875 -87.234375 L 87.546875 -55.859375 C 87.546875 -54.179688 87.804688 -53.023438 88.328125 -52.390625 C 88.847656 -51.765625 89.84375 -51.453125 91.3125 -51.453125 L 193.296875 -51.453125 C 197.890625 -51.453125 200.1875 -49.46875 200.1875 -45.5 L 200.1875 -6.90625 C 200.1875 -4.8125 199.554688 -3.132812 198.296875 -1.875 C 197.046875 -0.625 195.164062 0 192.65625 0 L 24.78125 0 C 21.644531 0 19.445312 -0.625 18.1875 -1.875 C 16.9375 -3.132812 16.3125 -5.125 16.3125 -7.84375 Z M 16.3125 -225.609375 "/></g></g></g></svg>